<svg id="visual" viewBox="0 0 900 600" width="900" height="600" xmlns="http://www.w3.org/2000/svg" xmlns:xlink="http://www.w3.org/1999/xlink" version="1.1"><g stroke-width="1" stroke-linejoin="bevel"><path d="M477 373L677 374L641 158Z" fill="#2e5b74" stroke="#2e5b74"></path><path d="M641 158L450 174L477 373Z" fill="#4c83a3" stroke="#4c83a3"></path><path d="M641 158L469 0L450 174Z" fill="#5f9dc0" stroke="#5f9dc0"></path><path d="M900 177L700 0L641 158Z" fill="#4c83a3" stroke="#4c83a3"></path><path d="M641 158L700 0L469 0Z" fill="#66a6ca" stroke="#66a6ca"></path><path d="M477 373L635 600L677 374Z" fill="#5f9dc0" stroke="#5f9dc0"></path><path d="M900 420L900 177L677 374Z" fill="#28536b" stroke="#28536b"></path><path d="M677 374L900 177L641 158Z" fill="#407390" stroke="#407390"></path><path d="M225 421L446 600L477 373Z" fill="#5f9dc0" stroke="#5f9dc0"></path><path d="M477 373L446 600L635 600Z" fill="#28536b" stroke="#28536b"></path><path d="M469 0L251 161L450 174Z" fill="#2e5b74" stroke="#2e5b74"></path><path d="M450 174L251 161L477 373Z" fill="#3a6b86" stroke="#3a6b86"></path><path d="M635 600L900 420L677 374Z" fill="#5f9dc0" stroke="#5f9dc0"></path><path d="M251 161L225 421L477 373Z" fill="#34637d" stroke="#34637d"></path><path d="M900 177L900 0L700 0Z" fill="#2e5b74" stroke="#2e5b74"></path><path d="M635 600L900 600L900 420Z" fill="#34637d" stroke="#34637d"></path><path d="M469 0L200 0L251 161Z" fill="#5f9dc0" stroke="#5f9dc0"></path><path d="M251 161L0 361L225 421Z" fill="#34637d" stroke="#34637d"></path><path d="M0 600L184 600L225 421Z" fill="#538cac" stroke="#538cac"></path><path d="M225 421L184 600L446 600Z" fill="#66a6ca" stroke="#66a6ca"></path><path d="M0 163L0 361L251 161Z" fill="#5f9dc0" stroke="#5f9dc0"></path><path d="M200 0L0 163L251 161Z" fill="#467b99" stroke="#467b99"></path><path d="M200 0L0 0L0 163Z" fill="#66a6ca" stroke="#66a6ca"></path><path d="M0 361L0 600L225 421Z" fill="#3a6b86" stroke="#3a6b86"></path></g></svg>