<svg id="visual" viewBox="0 0 960 540" width="960" height="540" xmlns="http://www.w3.org/2000/svg" xmlns:xlink="http://www.w3.org/1999/xlink" version="1.1"><path d="M0 87L32 91.5C64 96 128 105 192 98.8C256 92.7 320 71.3 384 63.3C448 55.3 512 60.7 576 71.3C640 82 704 98 768 105.2C832 112.3 896 110.7 928 109.8L960 109L960 0L928 0C896 0 832 0 768 0C704 0 640 0 576 0C512 0 448 0 384 0C320 0 256 0 192 0C128 0 64 0 32 0L0 0Z" fill="#374151"></path><path d="M0 185L32 194C64 203 128 221 192 212C256 203 320 167 384 153.5C448 140 512 149 576 165.2C640 181.3 704 204.7 768 216.3C832 228 896 228 928 228L960 228L960 107L928 107.8C896 108.7 832 110.3 768 103.2C704 96 640 80 576 69.3C512 58.7 448 53.3 384 61.3C320 69.3 256 90.7 192 96.8C128 103 64 94 32 89.5L0 85Z" fill="#334a5f"></path><path d="M0 239L32 245.2C64 251.3 128 263.7 192 257.3C256 251 320 226 384 215.3C448 204.7 512 208.3 576 222.7C640 237 704 262 768 271C832 280 896 273 928 269.5L960 266L960 226L928 226C896 226 832 226 768 214.3C704 202.7 640 179.3 576 163.2C512 147 448 138 384 151.5C320 165 256 201 192 210C128 219 64 201 32 192L0 183Z" fill="#28536b"></path><path d="M0 428L32 420.7C64 413.3 128 398.7 192 391.3C256 384 320 384 384 385.8C448 387.7 512 391.3 576 394.2C640 397 704 399 768 401.7C832 404.3 896 407.7 928 409.3L960 411L960 264L928 267.5C896 271 832 278 768 269C704 260 640 235 576 220.7C512 206.3 448 202.7 384 213.3C320 224 256 249 192 255.3C128 261.7 64 249.3 32 243.2L0 237Z" fill="#28536b"></path><path d="M0 487L32 480.7C64 474.3 128 461.7 192 456.3C256 451 320 453 384 454C448 455 512 455 576 457.7C640 460.3 704 465.7 768 466.5C832 467.3 896 463.7 928 461.8L960 460L960 409L928 407.3C896 405.7 832 402.3 768 399.7C704 397 640 395 576 392.2C512 389.3 448 385.7 384 383.8C320 382 256 382 192 389.3C128 396.7 64 411.3 32 418.7L0 426Z" fill="#334a5f"></path><path d="M0 541L32 541C64 541 128 541 192 541C256 541 320 541 384 541C448 541 512 541 576 541C640 541 704 541 768 541C832 541 896 541 928 541L960 541L960 458L928 459.8C896 461.7 832 465.3 768 464.5C704 463.7 640 458.3 576 455.7C512 453 448 453 384 452C320 451 256 449 192 454.3C128 459.7 64 472.3 32 478.7L0 485Z" fill="#374151"></path></svg>