<svg width="1440" height="698" viewBox="0 0 1440 698" fill="none" xmlns="http://www.w3.org/2000/svg">
<path d="M3 698L1443 602V538H3V698Z" fill="#FFEB85"/>
<path opacity="0.25" d="M3 141.989V82.2318C60.348 53.5729 127.308 40.7023 192.6 46.0855C277.032 53.0178 356.196 89.0866 440.76 94.4957C529.368 100.124 617.808 72.7046 702.6 48.9772C785.724 25.7403 868.56 16.8587 953.88 32.0917C997.26 39.8374 1037.7 55.1221 1079.22 69.9678C1190.39 109.716 1338.6 160.437 1443 74.2538V141.989H3Z" fill="#FFEB85"/>
<path opacity="0.5" d="M3 141.989V121.58C18.6 94.3278 36.168 68.5865 60.228 48.9772C122.292 -1.65338 201 -1.30482 272.496 23.7652C309.876 36.8682 344.604 57.4199 380.1 75.1445C429.204 99.6723 481.776 134.528 537.096 139.265C580.608 142.945 622.176 127.105 655.416 98.5234C693.54 65.7465 730.2 18.4853 779.772 4.28494C828.3 -9.64427 877.392 12.9213 922.728 35.6289C968.064 58.3365 1012.92 85.9755 1063.03 91.2038C1134.71 98.7558 1198.97 61.6671 1265.71 41.0638C1301.95 29.8842 1336.51 33.0987 1370.22 50.7458C1397.14 64.8041 1427.82 85.5107 1443 114.312V141.989H3Z" fill="#FFEB85"/>
<path d="M3 141.989V134.721C182.916 65.8239 379.908 49.9196 573.996 87.034C625.596 96.8968 675.072 113.008 727.128 121.192C797.928 132.333 862.104 105.391 925.8 75.4931C996.516 42.3031 1066.2 19.0404 1144.44 25.8049C1248.28 34.8414 1351.39 84.8136 1443 135.289V141.989H3Z" fill="#FFEB85"/>
<rect y="142" width="1440" height="398" fill="#FFEB85"/>
</svg>
